<svg xmlns="http://www.w3.org/2000/svg" version="1.1" xmlns:xlink="http://www.w3.org/1999/xlink" xmlns:svgjs="http://svgjs.dev/svgjs" width="1500" height="636" viewBox="0 0 1500 636"><g transform="matrix(1,0,0,1,-0.9090909090909918,-0.07467710371821568)"><svg viewBox="0 0 396 168" data-background-color="#ffffff" preserveAspectRatio="xMidYMid meet" height="636" width="1500" xmlns="http://www.w3.org/2000/svg" xmlns:xlink="http://www.w3.org/1999/xlink"><g id="tight-bounds" transform="matrix(1,0,0,1,0.2400000000000091,0.01972602739726881)"><svg viewBox="0 0 395.52 167.96054794520546" height="167.96054794520546" width="395.52"><g><svg viewBox="0 0 395.52 167.96054794520546" height="167.96054794520546" width="395.52"><g><svg viewBox="0 0 395.52 167.96054794520546" height="167.96054794520546" width="395.52"><g id="textblocktransform"><svg viewBox="0 0 395.52 167.96054794520546" height="167.96054794520546" width="395.52" id="textblock"><g><svg viewBox="0 0 395.52 167.96054794520546" height="167.96054794520546" width="395.52"><g transform="matrix(1,0,0,1,0,0)"><svg width="395.52" viewBox="0.9 -34.1 80.28999999999999 34.1" height="167.96054794520546" data-palette-color="#2e30ff"><path d="M12.25 0L0.9-34.1 5.15-34.1 14.95-4 15-4 24.65-34.1 28.9-34.1 17.55 0 12.25 0ZM34.2 0L34.2-34.1 38.4-34.1 38.4 0 34.2 0ZM47.2 0L47.2-34.1 51.4-34.1 51.4-18.35 65.7-34.1 70.95-34.1 57.84-19.8 72.95 0 67.7 0 54.95-16.7 51.4-12.8 51.4 0 47.2 0ZM76.99 0L76.99-34.1 81.19-34.1 81.19 0 76.99 0Z" opacity="1" transform="matrix(1,0,0,1,0,0)" fill="#2e30ff" class="wordmark-text-0" data-fill-palette-color="primary" id="text-0"></path></svg></g></svg></g></svg></g></svg></g><g></g></svg></g><defs></defs></svg><rect width="395.52" height="167.96054794520546" fill="none" stroke="none" visibility="hidden"></rect></g></svg></g></svg>